# xmcd CD database file
#
# Track frame offsets:
#	150
#	19095
#	41610
#
# Disc length: 892 seconds
#
# Revision: 0
# Processed by: cddbd v1.5.1PL0 Copyright (c) Steve Scherf et al.
# Submitted via: CDex 1.51
#
DISCID=1b037a03
DTITLE=Era - Mother - maxi CD
DYEAR=1996
DGENRE=New Age
TTITLE0=Mother (Remix Radio)
TTITLE1=Mother
TTITLE2=Mother (Remix Radio Longue Version)
EXTD=YEAR: 1996
EXTT0=
EXTT1=
EXTT2=
PLAYORDER=
